<svg id="svg" version="1.1" xmlns="http://www.w3.org/2000/svg" xmlns:xlink="http://www.w3.org/1999/xlink" width="400" height="400" viewBox="0, 0, 400,400"><g id="svgg"><path id="path0" d="M133.450 93.681 C 133.315 94.407,133.025 97.070,132.806 99.600 C 132.587 102.130,132.232 105.910,132.017 108.000 C 131.802 110.090,131.443 113.690,131.219 116.000 C 130.996 118.310,130.538 122.630,130.201 125.600 C 129.381 132.846,128.366 142.590,127.972 147.000 C 127.795 148.980,127.458 152.220,127.224 154.200 C 126.989 156.180,126.606 159.960,126.372 162.600 C 126.138 165.240,125.824 168.294,125.673 169.386 L 125.400 171.371 124.685 170.276 C 124.291 169.674,123.793 168.151,123.577 166.891 C 123.361 165.631,123.008 163.835,122.792 162.900 C 122.576 161.965,122.220 160.390,122.000 159.400 C 121.780 158.410,121.409 156.745,121.176 155.700 C 120.492 152.632,119.484 149.183,119.320 149.347 C 119.114 149.553,117.970 152.617,115.342 160.000 C 114.128 163.410,112.655 167.550,112.068 169.200 L 111.000 172.200 109.200 172.400 C 108.210 172.510,100.245 172.549,91.500 172.487 L 75.600 172.373 75.057 171.087 C 71.446 162.522,57.764 163.781,55.581 172.879 C 52.873 184.168,68.234 191.305,74.072 181.471 C 76.067 178.110,74.023 178.400,95.755 178.400 L 115.110 178.400 116.400 175.200 C 117.109 173.440,117.843 172.000,118.029 172.000 C 118.402 172.000,119.439 175.216,119.812 177.531 C 120.071 179.132,121.204 184.071,122.398 188.800 C 122.815 190.450,123.251 192.430,123.368 193.200 C 123.484 193.970,123.946 196.130,124.394 198.000 C 124.842 199.870,125.566 203.079,126.002 205.131 C 127.484 212.104,127.491 212.086,128.805 198.600 C 129.276 193.760,129.924 187.460,130.245 184.600 C 130.566 181.740,131.002 177.420,131.215 175.000 C 131.427 172.580,131.775 169.250,131.987 167.600 C 132.200 165.950,132.574 162.080,132.818 159.000 C 133.460 150.912,133.708 149.400,134.394 149.400 C 135.059 149.400,135.372 150.874,135.948 156.723 C 136.331 160.618,137.103 166.822,138.223 175.000 C 138.554 177.420,138.992 180.930,139.196 182.800 C 139.401 184.670,139.765 187.640,140.007 189.400 C 140.249 191.160,140.599 194.040,140.786 195.800 C 141.175 199.467,142.154 206.855,142.985 212.400 C 143.298 214.490,143.665 217.460,143.800 219.000 C 143.935 220.540,144.317 223.600,144.648 225.800 C 144.979 228.000,145.412 231.510,145.611 233.600 C 145.809 235.690,146.234 239.290,146.554 241.600 C 146.875 243.910,147.340 247.600,147.589 249.800 C 147.838 252.000,148.207 254.880,148.408 256.200 C 148.609 257.520,148.968 260.220,149.205 262.200 C 149.443 264.180,149.802 266.970,150.002 268.400 C 150.203 269.830,150.581 272.938,150.843 275.308 C 151.104 277.677,151.385 279.548,151.468 279.466 C 151.645 279.288,153.370 265.581,153.967 259.600 C 154.197 257.290,154.567 253.870,154.789 252.000 C 155.173 248.756,155.938 241.967,157.606 227.000 C 158.022 223.260,158.465 219.030,158.590 217.600 C 158.715 216.170,159.072 213.020,159.383 210.600 C 159.695 208.180,160.331 202.600,160.797 198.200 C 161.263 193.800,161.860 188.670,162.122 186.800 L 162.600 183.400 206.216 183.200 L 249.833 183.000 252.727 180.855 C 258.214 176.786,263.409 177.200,206.822 177.200 L 157.215 177.200 157.036 178.100 C 156.937 178.595,156.654 180.710,156.407 182.800 C 156.161 184.890,155.797 187.950,155.599 189.600 C 155.261 192.420,154.116 202.809,153.152 211.800 C 152.917 214.000,152.561 216.778,152.362 217.973 C 152.163 219.169,152.000 220.979,152.000 221.997 C 152.000 226.027,150.610 226.029,150.273 222.000 C 150.090 219.809,149.331 213.991,148.187 206.000 C 147.856 203.690,147.413 199.910,147.203 197.600 C 146.993 195.290,146.651 192.770,146.444 192.000 C 146.236 191.230,145.956 189.160,145.820 187.400 C 145.550 183.890,144.309 173.682,143.388 167.400 C 143.066 165.200,142.621 161.690,142.400 159.600 C 142.178 157.510,141.812 154.630,141.586 153.200 C 141.360 151.770,141.018 149.070,140.825 147.200 C 140.632 145.330,140.186 141.550,139.834 138.800 C 139.483 136.050,138.833 130.920,138.391 127.400 C 137.949 123.880,137.421 119.740,137.217 118.200 C 137.014 116.660,136.657 113.870,136.424 112.000 C 136.192 110.130,135.717 106.440,135.369 103.800 C 135.020 101.160,134.565 97.570,134.357 95.822 C 133.921 92.167,133.790 91.858,133.450 93.681 M175.600 132.199 C 157.604 134.681,145.268 150.858,147.459 169.100 C 147.805 171.981,148.283 171.732,148.609 168.500 C 150.399 150.767,168.863 139.449,187.647 144.569 C 192.027 145.764,192.773 146.046,195.457 147.527 C 200.627 150.378,202.762 151.989,207.851 156.877 C 211.682 160.557,211.364 160.486,213.617 158.156 C 229.390 141.843,240.809 138.655,253.478 147.027 C 266.154 155.404,268.703 172.727,258.388 180.400 C 257.649 180.950,256.452 181.911,255.729 182.535 C 255.007 183.159,252.462 185.139,250.075 186.935 C 226.951 204.334,215.620 216.986,212.399 229.005 C 210.650 235.529,210.997 242.818,212.773 236.879 C 213.619 234.050,214.702 231.449,215.722 229.800 C 218.754 224.895,221.300 221.774,225.961 217.249 C 231.028 212.329,238.170 206.172,240.652 204.584 C 241.942 203.759,243.177 202.875,243.398 202.619 C 244.052 201.862,246.388 200.274,249.800 198.265 C 251.560 197.229,253.270 196.205,253.600 195.988 C 253.930 195.772,254.470 195.474,254.800 195.326 C 258.625 193.615,265.771 187.933,269.370 183.743 C 287.898 162.165,268.164 128.231,239.401 132.208 C 230.201 133.481,226.302 135.633,217.430 144.339 C 211.563 150.096,212.099 149.996,208.148 146.075 C 195.801 133.819,187.993 130.490,175.600 132.199 M278.398 177.117 C 277.525 177.219,274.400 181.787,274.400 182.963 C 274.400 183.099,280.385 183.163,287.700 183.105 L 301.000 183.000 301.118 180.295 C 301.203 178.354,301.090 177.536,300.718 177.403 C 300.135 177.194,279.955 176.935,278.398 177.117 " stroke="none" fill="#cf242c" fill-rule="evenodd"></path><path id="path1" d="M200.400 235.878 C 198.599 236.521,198.263 239.099,199.782 240.618 C 201.729 242.566,206.000 241.342,206.000 238.837 C 206.000 236.239,203.333 234.829,200.400 235.878 M248.100 236.195 C 246.764 237.160,246.816 240.057,248.186 240.954 C 251.511 243.133,256.032 239.705,253.675 236.793 C 252.709 235.600,249.412 235.247,248.100 236.195 M234.895 250.284 L 235.000 264.600 238.200 264.600 L 241.400 264.600 241.400 250.400 L 241.400 236.200 238.095 236.084 L 234.790 235.967 234.895 250.284 M177.446 238.586 C 177.091 239.128,176.802 239.713,176.805 239.886 C 176.811 240.194,172.185 254.628,170.011 261.086 C 168.689 265.015,168.536 264.800,172.643 264.800 C 176.319 264.800,176.267 264.834,177.244 261.800 L 177.889 259.800 182.430 259.800 L 186.972 259.800 187.586 261.800 C 188.515 264.826,188.475 264.800,192.157 264.800 C 193.977 264.800,195.555 264.711,195.663 264.603 C 195.983 264.284,187.240 238.272,186.697 237.928 C 185.321 237.054,178.113 237.567,177.446 238.586 M276.570 238.423 C 266.424 242.326,265.853 259.760,275.733 263.975 C 278.883 265.319,285.853 265.041,288.300 263.473 C 288.615 263.271,288.800 262.200,288.800 260.576 C 288.800 257.725,288.755 257.691,286.200 258.612 C 279.936 260.868,276.000 258.039,276.000 251.277 C 276.000 244.147,281.384 240.859,287.077 244.513 C 287.547 244.814,288.009 244.026,289.217 240.863 C 289.822 239.280,289.665 239.125,286.538 238.206 C 283.651 237.357,279.081 237.457,276.570 238.423 M184.135 248.361 C 185.487 253.929,185.469 253.988,182.400 253.988 C 179.343 253.988,179.061 252.152,181.246 246.481 C 181.441 245.976,181.600 245.151,181.600 244.648 C 181.600 243.620,181.956 243.119,182.546 243.315 C 182.764 243.388,183.479 245.658,184.135 248.361 M216.800 243.973 C 212.366 244.752,211.963 245.198,213.210 247.946 C 213.889 249.443,214.131 249.655,214.901 249.431 C 219.919 247.968,222.065 248.270,222.323 250.476 C 222.445 251.514,222.406 251.531,219.323 251.778 C 212.070 252.361,209.421 254.742,210.205 259.971 C 210.942 264.887,218.628 266.747,222.146 262.860 C 222.896 262.031,224.000 262.102,224.000 262.981 C 224.000 264.103,225.482 264.849,227.458 264.724 L 229.400 264.600 229.400 256.800 C 229.400 244.990,226.694 242.235,216.800 243.973 M299.600 243.972 C 297.298 244.378,295.200 245.174,295.200 245.643 C 295.200 247.051,296.973 249.645,297.759 249.388 C 302.025 247.996,305.200 248.421,305.200 250.386 C 305.200 251.444,304.959 251.535,301.329 251.837 C 295.620 252.313,292.800 254.510,292.800 258.479 C 292.800 264.236,298.833 266.877,304.016 263.389 C 305.169 262.613,306.154 262.028,306.205 262.089 C 306.256 262.150,306.600 262.794,306.970 263.520 C 307.615 264.788,307.724 264.836,309.721 264.720 L 311.800 264.600 311.908 256.507 C 312.065 244.803,309.532 242.224,299.600 243.972 M327.800 244.227 C 327.140 244.569,326.048 245.381,325.374 246.031 C 324.035 247.322,323.801 247.249,322.977 245.280 C 322.432 243.978,322.391 243.961,320.112 244.080 L 317.800 244.200 317.800 254.400 L 317.800 264.600 321.000 264.600 L 324.200 264.600 324.400 258.277 C 324.594 252.130,324.627 251.933,325.587 251.209 C 326.612 250.436,329.712 249.775,330.379 250.187 C 330.957 250.544,331.468 249.257,331.785 246.646 C 332.163 243.533,330.770 242.688,327.800 244.227 M341.733 243.962 C 333.032 245.438,331.600 259.903,339.772 263.770 C 342.327 264.978,348.158 265.219,351.000 264.233 C 352.592 263.681,352.601 263.666,352.721 261.388 L 352.843 259.099 351.721 259.387 C 346.254 260.793,341.600 259.675,341.600 256.956 L 341.600 256.020 347.900 255.910 L 354.200 255.800 354.327 254.019 C 354.836 246.875,349.532 242.639,341.733 243.962 M198.995 244.500 C 198.897 244.775,198.767 249.986,198.708 256.081 C 198.589 268.255,198.624 268.093,196.116 268.180 L 194.600 268.233 194.600 270.816 L 194.600 273.400 197.557 273.519 C 200.770 273.648,202.388 273.136,203.856 271.526 C 205.558 269.659,205.600 269.294,205.600 256.426 L 205.600 244.000 202.387 244.000 C 200.180 244.000,199.119 244.156,198.995 244.500 M247.387 244.491 C 247.276 244.779,247.234 249.422,247.293 254.808 L 247.400 264.600 249.783 264.722 C 251.094 264.790,252.582 264.741,253.090 264.613 L 254.014 264.381 253.907 254.291 L 253.800 244.200 250.694 244.083 C 248.414 243.997,247.534 244.106,247.387 244.491 M346.371 248.585 C 349.469 250.187,348.634 252.000,344.800 252.000 C 341.744 252.000,341.601 251.959,341.613 251.100 C 341.646 248.774,344.163 247.443,346.371 248.585 M222.400 256.977 C 222.400 259.872,218.391 261.454,217.273 259.000 C 216.353 256.982,217.990 255.280,220.900 255.227 L 222.400 255.200 222.400 256.977 M305.527 256.501 C 305.763 258.552,304.232 260.061,302.058 259.920 C 300.069 259.792,299.631 259.124,300.158 257.024 C 300.676 254.960,305.298 254.509,305.527 256.501 M359.232 259.100 C 357.940 260.156,357.730 262.349,358.793 263.700 C 360.352 265.682,364.250 265.099,365.143 262.750 C 366.298 259.711,361.848 256.962,359.232 259.100 " stroke="none" fill="#0c0c0c" fill-rule="evenodd"></path><path id="path2" d="M0.000 200.000 L 0.000 400.000 200.000 400.000 L 400.000 400.000 400.000 200.000 L 400.000 0.000 200.000 0.000 L 0.000 0.000 0.000 200.000 M134.709 93.300 C 136.049 104.185,136.800 110.089,137.164 112.600 C 137.386 114.140,137.752 116.930,137.977 118.800 C 138.418 122.480,139.608 132.125,140.567 139.800 C 140.897 142.440,141.536 147.570,141.988 151.200 C 142.439 154.830,143.156 160.410,143.582 163.600 C 144.007 166.790,144.647 171.830,145.004 174.800 C 145.361 177.770,145.900 182.000,146.202 184.200 C 146.504 186.400,146.952 190.090,147.199 192.400 C 147.445 194.710,147.804 197.590,147.997 198.800 C 148.191 200.010,148.460 201.990,148.595 203.200 C 148.731 204.410,149.182 208.010,149.596 211.200 C 150.011 214.390,150.467 218.055,150.610 219.346 C 150.987 222.756,151.456 221.666,151.965 216.200 C 152.211 213.560,152.669 209.420,152.984 207.000 C 153.298 204.580,153.838 199.990,154.183 196.800 C 155.767 182.150,156.367 177.176,156.598 176.803 C 156.977 176.190,257.060 176.250,257.439 176.863 C 257.700 177.285,257.088 177.939,253.183 181.407 C 252.624 181.904,251.544 182.690,250.783 183.154 L 249.400 183.997 206.514 183.999 C 166.075 184.000,163.608 184.040,163.269 184.700 C 162.874 185.471,162.747 186.406,161.568 197.200 C 161.123 201.270,160.400 207.840,159.960 211.800 C 158.757 222.643,157.681 232.531,157.218 237.000 C 156.990 239.200,156.535 243.070,156.208 245.600 C 155.881 248.130,155.156 254.520,154.597 259.800 C 154.038 265.080,153.224 272.190,152.790 275.600 C 152.355 279.010,151.999 281.935,151.999 282.100 C 152.000 282.265,151.833 282.400,151.628 282.400 C 151.165 282.400,150.675 279.784,149.793 272.600 C 148.783 264.374,148.115 259.008,147.652 255.400 C 147.426 253.640,147.039 250.580,146.793 248.600 C 146.547 246.620,145.997 242.300,145.570 239.000 C 145.144 235.700,144.526 230.570,144.198 227.600 C 143.870 224.630,143.245 219.590,142.810 216.400 C 142.375 213.210,141.836 209.250,141.611 207.600 C 141.387 205.950,140.833 201.630,140.381 198.000 C 134.356 149.590,134.716 152.189,134.234 153.643 C 134.132 153.949,133.762 156.900,133.411 160.200 C 132.164 171.913,131.633 177.030,131.415 179.400 C 131.017 183.734,129.214 200.879,128.523 206.900 C 127.642 214.571,127.385 214.527,125.606 206.400 C 125.149 204.310,124.510 201.520,124.187 200.200 C 123.864 198.880,122.989 195.010,122.243 191.600 C 118.058 172.483,118.043 172.437,116.993 175.664 C 115.741 179.508,117.675 179.179,95.641 179.296 L 76.200 179.400 75.524 180.754 C 71.553 188.708,59.146 188.503,55.498 180.424 C 51.185 170.874,61.048 161.035,70.459 165.501 C 72.312 166.380,75.600 169.931,75.600 171.052 C 75.600 171.508,78.537 171.600,92.995 171.600 L 110.389 171.600 111.011 170.111 C 111.724 168.407,113.599 163.161,116.485 154.800 C 119.830 145.110,119.582 144.818,123.454 163.000 C 124.990 170.214,124.976 170.241,126.200 157.953 C 126.735 152.589,127.362 146.400,127.594 144.200 C 127.826 142.000,128.281 137.590,128.605 134.400 C 128.929 131.210,129.557 125.180,130.000 121.000 C 130.443 116.820,131.073 110.700,131.400 107.400 C 133.126 89.987,133.182 89.600,133.950 89.600 C 134.117 89.600,134.459 91.265,134.709 93.300 M187.950 132.155 C 188.913 132.510,190.083 132.801,190.550 132.803 C 191.456 132.805,197.451 135.665,199.350 137.000 C 200.838 138.046,206.361 143.184,209.132 146.100 C 211.932 149.046,211.331 149.264,217.690 143.000 C 220.705 140.030,223.345 137.600,223.557 137.600 C 223.769 137.600,224.212 137.331,224.542 137.001 C 225.499 136.044,231.345 133.260,233.878 132.555 C 243.803 129.794,255.187 131.519,262.583 136.904 C 272.514 144.134,277.657 154.706,277.103 166.748 C 276.923 170.666,275.413 176.859,274.458 177.600 C 274.316 177.710,273.840 178.519,273.400 179.397 C 271.852 182.487,265.753 189.002,262.264 191.293 C 261.349 191.894,260.420 192.524,260.200 192.693 C 258.732 193.821,251.015 198.400,250.583 198.400 C 250.355 198.400,247.843 200.141,246.138 201.482 C 245.292 202.147,244.060 202.990,243.400 203.356 C 242.740 203.721,240.940 205.001,239.400 206.200 C 237.860 207.398,236.420 208.518,236.200 208.689 C 225.660 216.869,215.823 228.944,213.625 236.400 C 211.908 242.226,211.472 242.792,211.054 239.744 C 210.175 233.332,211.857 225.729,215.377 220.200 C 218.496 215.301,219.605 213.703,220.349 213.038 C 220.817 212.619,221.200 212.141,221.200 211.977 C 221.200 211.286,227.780 204.484,232.150 200.658 C 233.443 199.526,234.775 198.330,235.111 198.000 C 235.447 197.670,236.118 197.130,236.603 196.800 C 237.088 196.470,238.498 195.321,239.737 194.246 C 240.976 193.171,242.966 191.551,244.159 190.646 C 245.351 189.741,247.251 188.280,248.380 187.400 C 249.509 186.520,251.910 184.649,253.716 183.242 C 260.552 177.916,263.223 174.154,264.030 168.712 C 266.562 151.627,244.390 137.360,228.933 146.130 C 224.039 148.907,222.844 149.856,217.464 155.250 C 214.420 158.303,211.772 160.800,211.581 160.800 C 211.305 160.800,205.215 155.373,204.400 154.401 C 204.290 154.270,203.120 153.353,201.800 152.363 C 179.712 135.797,151.654 145.088,149.141 169.800 C 148.651 174.620,148.254 175.218,147.446 172.353 C 143.193 157.280,152.322 139.765,167.672 133.549 C 173.380 131.237,183.559 130.538,187.950 132.155 M301.920 179.392 C 301.987 180.927,301.938 182.592,301.813 183.092 L 301.585 184.000 287.592 184.000 C 276.670 184.000,273.598 183.890,273.590 183.500 C 273.585 183.225,274.350 181.513,275.290 179.695 L 277.000 176.389 289.400 176.495 L 301.800 176.600 301.920 179.392 M204.562 235.255 C 205.821 235.829,206.801 237.858,206.519 239.309 C 205.855 242.727,199.627 243.027,198.363 239.702 C 197.145 236.500,201.088 233.673,204.562 235.255 M253.600 235.945 C 255.079 237.032,255.203 239.634,253.841 240.995 C 252.369 242.467,248.716 242.458,247.346 240.979 C 243.994 237.362,249.500 232.929,253.600 235.945 M242.000 250.120 C 242.228 266.438,242.540 265.200,238.200 265.200 C 233.665 265.200,234.000 266.367,234.000 250.553 C 234.000 234.024,233.576 235.542,238.148 235.686 L 241.800 235.800 242.000 250.120 M287.460 237.796 C 290.511 238.701,290.654 239.049,289.302 242.270 C 288.039 245.277,288.225 245.204,284.428 244.198 C 278.984 242.756,275.844 246.098,276.517 252.617 C 277.090 258.166,280.091 259.870,286.035 258.020 C 289.201 257.034,289.200 257.033,289.200 260.759 C 289.200 264.378,289.137 264.439,284.554 265.237 C 273.800 267.110,266.617 259.763,268.384 248.698 C 269.893 239.252,277.576 234.860,287.460 237.796 M187.479 237.700 C 188.155 238.598,196.456 264.387,196.201 264.799 C 195.828 265.401,188.590 265.313,188.090 264.700 C 187.866 264.425,187.448 263.390,187.161 262.400 C 186.482 260.057,186.392 260.012,182.400 260.012 C 178.544 260.012,178.230 260.136,177.848 261.800 C 177.057 265.247,177.127 265.200,172.775 265.200 C 170.510 265.200,168.739 265.025,168.592 264.788 C 168.378 264.441,171.076 255.676,175.916 241.000 C 176.496 239.240,177.157 237.668,177.385 237.506 C 178.133 236.976,187.063 237.148,187.479 237.700 M205.618 243.609 C 206.692 244.185,206.836 266.982,205.781 269.507 C 204.529 272.503,202.509 273.890,198.910 274.225 C 194.690 274.618,194.200 274.259,194.200 270.771 L 194.200 267.800 195.998 267.600 C 198.333 267.340,198.294 267.560,198.353 254.580 C 198.382 248.074,198.554 244.006,198.809 243.751 C 199.363 243.197,204.641 243.087,205.618 243.609 M225.798 243.999 C 229.476 245.780,230.043 247.600,229.909 257.205 L 229.800 265.000 227.333 265.118 C 224.839 265.238,224.625 265.146,223.456 263.451 C 222.963 262.737,222.874 262.759,221.537 263.933 C 216.788 268.103,209.600 264.816,209.600 258.475 C 209.600 253.568,212.548 251.505,220.200 251.056 C 222.064 250.947,222.353 250.106,220.800 249.313 C 219.745 248.773,218.536 248.899,215.647 249.850 C 214.682 250.167,213.849 250.376,213.795 250.313 C 212.140 248.411,211.421 244.462,212.714 244.382 C 212.871 244.373,213.900 244.115,215.000 243.809 C 218.156 242.933,223.801 243.032,225.798 243.999 M254.254 243.721 C 254.598 244.064,254.536 264.257,254.189 264.817 C 253.931 265.235,248.056 265.350,247.033 264.957 C 246.229 264.649,246.062 244.498,246.857 243.703 C 247.355 243.205,253.753 243.220,254.254 243.721 M307.602 243.594 C 311.880 244.782,312.800 247.146,312.800 256.944 C 312.800 265.737,313.023 265.200,309.378 265.200 C 307.382 265.200,307.174 265.110,306.595 263.991 L 305.970 262.782 304.678 263.768 C 299.279 267.886,292.400 264.907,292.400 258.452 C 292.400 253.877,295.172 251.631,301.253 251.279 C 304.587 251.086,305.291 250.720,304.278 249.707 C 303.489 248.918,301.108 248.933,298.801 249.743 C 296.639 250.502,296.341 250.299,295.195 247.284 L 294.409 245.216 295.592 244.604 C 298.132 243.291,304.563 242.750,307.602 243.594 M323.067 244.224 C 323.360 244.625,323.600 245.189,323.600 245.476 C 323.600 246.244,324.311 246.116,325.317 245.166 C 326.852 243.717,328.350 243.152,330.321 243.279 L 332.200 243.400 332.130 246.758 C 332.050 250.616,331.917 250.785,328.970 250.794 C 325.461 250.804,325.063 251.577,324.949 258.603 C 324.897 261.784,324.742 264.570,324.604 264.794 C 324.335 265.229,318.488 265.362,317.433 264.957 C 316.451 264.581,316.478 244.220,317.461 243.670 C 318.617 243.023,322.467 243.404,323.067 244.224 M350.517 244.530 C 353.250 246.132,354.490 248.469,354.720 252.451 C 354.978 256.902,355.136 256.800,347.951 256.800 C 341.959 256.800,341.623 256.876,342.513 258.035 C 343.802 259.714,346.549 260.044,350.260 258.965 C 353.293 258.084,353.600 258.287,353.600 261.178 C 353.600 263.984,353.151 264.440,349.680 265.160 C 338.783 267.421,331.562 260.336,334.407 250.175 C 336.154 243.937,344.509 241.009,350.517 244.530 M181.272 248.500 C 180.090 253.444,180.019 253.200,182.633 253.200 C 184.257 253.200,184.814 253.063,184.673 252.700 C 184.566 252.425,184.065 250.535,183.561 248.500 C 183.056 246.465,182.533 244.800,182.400 244.800 C 182.267 244.800,181.759 246.465,181.272 248.500 M343.062 249.531 C 341.876 250.842,342.250 251.200,344.800 251.200 C 347.384 251.200,347.851 250.713,346.469 249.462 C 345.502 248.588,343.886 248.621,343.062 249.531 M218.262 256.731 C 217.480 257.595,217.415 258.455,218.080 259.120 C 219.345 260.385,222.000 258.950,222.000 257.000 C 222.000 255.718,219.351 255.528,218.262 256.731 M301.209 256.712 C 300.485 257.299,300.339 257.701,300.547 258.533 C 301.082 260.664,305.039 259.283,304.725 257.075 C 304.556 255.887,302.491 255.674,301.209 256.712 M364.318 258.669 C 367.271 260.513,366.077 264.997,362.505 265.477 C 359.406 265.892,357.628 264.591,357.524 261.831 C 357.396 258.410,361.125 256.674,364.318 258.669 " stroke="none" fill="#fbfbfb" fill-rule="evenodd"></path><path id="path3" d="M133.388 90.020 C 133.140 90.421,132.715 94.133,131.400 107.400 C 131.073 110.700,130.453 116.730,130.022 120.800 C 128.701 133.290,128.668 133.729,129.087 133.470 C 129.303 133.337,129.615 131.646,129.781 129.714 C 130.528 121.016,130.785 118.393,131.186 115.400 C 131.422 113.640,131.787 110.220,131.998 107.800 C 133.365 92.068,134.083 88.627,134.501 95.800 C 134.591 97.340,134.963 100.850,135.328 103.600 C 135.693 106.350,136.184 110.130,136.419 112.000 C 136.865 115.542,137.334 119.177,137.981 124.100 C 138.190 125.695,138.562 128.710,138.808 130.800 C 139.053 132.890,139.412 135.500,139.607 136.600 C 139.802 137.700,140.180 140.723,140.447 143.318 C 140.715 145.913,141.108 148.143,141.321 148.275 C 141.562 148.424,141.610 147.852,141.449 146.757 C 141.307 145.791,140.915 142.750,140.579 140.000 C 140.242 137.250,139.611 132.120,139.176 128.600 C 138.741 125.080,138.201 120.670,137.977 118.800 C 137.752 116.930,137.386 114.140,137.164 112.600 C 136.800 110.089,136.049 104.185,134.709 93.300 C 134.278 89.794,133.982 89.059,133.388 90.020 M175.000 131.556 C 174.273 131.745,176.261 131.876,180.043 131.889 C 183.817 131.902,186.614 132.086,187.116 132.355 C 187.573 132.600,188.274 132.787,188.674 132.772 C 189.073 132.756,188.680 132.467,187.800 132.129 C 186.008 131.440,176.999 131.037,175.000 131.556 M238.000 131.604 C 234.533 132.176,230.058 133.600,231.728 133.600 C 232.770 133.600,236.175 132.648,236.438 132.283 C 237.010 131.490,248.491 131.835,251.443 132.734 C 254.638 133.707,254.800 133.733,254.800 133.267 C 254.800 132.931,252.498 132.246,249.200 131.600 C 247.064 131.182,240.544 131.184,238.000 131.604 M171.000 132.392 C 169.073 132.891,167.686 133.545,168.494 133.575 C 169.573 133.614,172.800 132.671,172.800 132.317 C 172.800 131.957,172.662 131.962,171.000 132.392 M189.600 132.969 C 189.600 133.062,190.275 133.354,191.100 133.619 C 196.266 135.275,199.010 137.200,206.400 144.350 C 209.150 147.011,211.646 149.191,211.947 149.194 C 212.248 149.197,214.707 146.995,217.411 144.300 C 223.856 137.876,225.473 136.606,229.300 134.959 C 230.125 134.604,230.800 134.148,230.800 133.946 C 230.800 133.430,225.517 136.044,224.471 137.078 C 224.181 137.365,223.769 137.600,223.557 137.600 C 223.345 137.600,220.705 140.030,217.690 143.000 C 211.331 149.264,211.932 149.046,209.132 146.100 C 206.361 143.184,200.838 138.046,199.350 137.000 C 196.245 134.817,189.600 132.070,189.600 132.969 M255.671 133.717 C 255.962 134.001,256.830 134.483,257.600 134.787 C 258.370 135.091,259.478 135.668,260.062 136.070 C 260.646 136.471,261.232 136.800,261.365 136.800 C 261.600 136.800,262.450 137.500,265.721 140.389 C 269.522 143.746,272.662 148.417,274.601 153.600 C 274.971 154.590,275.421 155.760,275.600 156.200 C 276.920 159.445,276.909 172.677,275.586 173.133 C 275.374 173.207,275.200 173.572,275.200 173.944 C 275.200 174.317,274.920 175.022,274.577 175.512 C 274.234 176.001,274.055 176.566,274.179 176.767 C 274.303 176.967,274.259 177.192,274.081 177.266 C 273.903 177.340,273.063 178.551,272.214 179.959 C 270.122 183.427,263.475 190.125,260.694 191.568 C 260.092 191.880,259.600 192.285,259.600 192.468 C 259.600 192.650,259.407 192.800,259.172 192.800 C 258.937 192.800,257.959 193.340,257.000 194.000 C 256.041 194.660,255.063 195.200,254.828 195.200 C 254.593 195.200,254.400 195.368,254.400 195.573 C 254.400 195.778,254.012 196.069,253.537 196.220 C 252.203 196.643,247.147 199.820,245.738 201.121 C 245.044 201.761,244.234 202.381,243.938 202.499 C 243.472 202.684,241.791 203.885,236.623 207.725 C 234.608 209.222,228.751 214.543,224.581 218.666 C 221.903 221.313,218.085 225.874,217.357 227.296 C 216.989 228.013,216.578 228.690,216.444 228.800 C 215.963 229.194,215.149 230.882,215.345 231.078 C 215.455 231.188,216.527 229.776,217.727 227.939 C 220.672 223.431,230.792 212.886,236.200 208.689 C 236.420 208.518,237.860 207.398,239.400 206.200 C 240.940 205.001,242.740 203.721,243.400 203.356 C 244.060 202.990,245.292 202.147,246.138 201.482 C 247.843 200.141,250.355 198.400,250.583 198.400 C 251.015 198.400,258.732 193.821,260.200 192.693 C 260.420 192.524,261.349 191.894,262.264 191.293 C 265.753 189.002,271.852 182.487,273.400 179.397 C 273.840 178.519,274.316 177.710,274.458 177.600 C 275.413 176.859,276.923 170.666,277.103 166.748 C 277.657 154.706,272.514 144.134,262.583 136.904 C 261.078 135.808,255.992 133.200,255.360 133.200 C 255.241 133.200,255.381 133.433,255.671 133.717 M127.874 141.100 C 127.502 145.005,126.844 151.620,126.411 155.800 C 125.514 164.468,125.470 165.328,125.940 165.037 C 126.127 164.922,126.407 163.156,126.562 161.114 C 126.927 156.312,127.512 150.234,127.999 146.200 C 128.473 142.269,128.965 134.000,128.725 134.000 C 128.629 134.000,128.246 137.195,127.874 141.100 M164.200 135.128 C 152.690 141.437,145.581 154.300,146.585 167.000 C 146.875 170.669,147.889 174.677,148.394 174.153 C 148.581 173.959,148.918 172.000,149.141 169.800 C 149.738 163.935,152.379 157.475,155.582 154.051 C 158.759 150.654,159.276 149.995,158.554 150.263 C 158.139 150.416,157.708 150.675,157.596 150.839 C 156.978 151.740,154.880 154.246,154.122 154.990 C 151.901 157.168,149.068 164.185,148.588 168.700 C 148.066 173.600,147.210 170.390,147.203 163.506 C 147.196 155.676,150.752 147.803,157.539 140.627 C 158.698 139.402,159.722 138.400,159.815 138.400 C 159.908 138.400,161.023 137.727,162.292 136.905 C 163.562 136.082,165.230 135.107,166.000 134.737 C 166.770 134.367,167.130 134.057,166.800 134.048 C 166.470 134.039,165.300 134.525,164.200 135.128 M233.623 143.436 C 231.826 144.000,230.191 145.109,231.800 144.673 C 232.240 144.554,233.905 144.149,235.500 143.774 C 237.095 143.399,238.400 143.026,238.400 142.946 C 238.400 142.602,235.254 142.925,233.623 143.436 M174.071 143.651 C 172.240 143.845,170.406 144.182,169.997 144.402 C 169.588 144.621,168.938 144.800,168.553 144.800 C 168.168 144.800,167.121 145.132,166.226 145.538 C 165.332 145.944,164.105 146.480,163.500 146.730 C 162.895 146.979,162.400 147.370,162.400 147.598 C 162.400 147.827,163.265 147.575,164.322 147.040 C 170.503 143.908,180.306 143.217,188.109 145.364 C 190.029 145.892,191.600 146.190,191.600 146.026 C 191.600 145.731,189.525 145.015,187.600 144.647 C 187.050 144.541,185.880 144.282,185.000 144.070 C 182.437 143.454,177.666 143.271,174.071 143.651 M241.963 143.619 C 258.261 145.824,268.517 160.984,262.392 173.816 C 260.579 177.616,256.004 182.078,249.353 186.532 C 248.448 187.139,247.278 188.113,246.753 188.697 L 245.800 189.759 247.000 189.030 C 248.665 188.019,253.866 184.124,255.831 182.417 C 256.728 181.638,257.934 180.667,258.511 180.259 C 263.238 176.919,265.914 167.834,264.166 161.058 C 261.763 151.737,251.321 143.368,242.000 143.293 L 239.400 143.272 241.963 143.619 M227.587 146.100 C 226.198 146.815,224.237 148.185,223.231 149.144 C 221.404 150.885,221.559 150.821,225.476 148.220 C 226.617 147.462,228.282 146.468,229.176 146.012 C 230.741 145.214,231.178 144.800,230.456 144.800 C 230.267 144.800,228.976 145.385,227.587 146.100 M193.600 147.322 C 196.380 148.707,199.250 150.431,200.900 151.707 C 201.725 152.345,202.400 152.692,202.400 152.479 C 202.400 151.419,194.192 146.383,192.513 146.413 C 192.121 146.419,192.610 146.829,193.600 147.322 M118.892 148.500 C 118.669 148.775,117.586 151.610,116.485 154.800 C 113.599 163.161,111.724 168.407,111.011 170.111 L 110.389 171.600 92.995 171.600 C 78.537 171.600,75.600 171.508,75.600 171.052 C 75.600 168.097,70.080 164.623,65.365 164.609 C 61.179 164.597,55.200 168.509,55.200 171.260 C 55.200 172.067,55.894 171.422,57.192 169.409 C 60.627 164.084,68.501 163.669,73.135 168.568 C 74.271 169.769,75.200 171.025,75.200 171.358 C 75.200 172.364,77.060 172.458,94.402 172.326 L 111.000 172.200 111.140 171.200 C 111.218 170.650,111.432 170.106,111.618 169.990 C 111.803 169.875,112.187 168.885,112.471 167.790 C 112.755 166.696,113.095 165.710,113.228 165.600 C 113.360 165.490,114.384 162.790,115.504 159.600 C 118.485 151.107,119.260 149.057,119.702 148.500 C 119.964 148.169,119.963 148.000,119.698 148.000 C 119.478 148.000,119.115 148.225,118.892 148.500 M160.511 148.500 C 159.512 149.792,159.593 150.029,160.743 149.179 C 161.434 148.668,162.000 148.193,162.000 148.125 C 162.000 147.776,160.847 148.066,160.511 148.500 M120.184 150.200 C 120.274 151.080,120.520 152.610,120.730 153.600 C 121.236 155.984,121.993 159.420,122.449 161.400 C 122.651 162.280,122.927 163.675,123.061 164.500 C 123.195 165.325,123.470 166.000,123.671 166.000 C 124.106 166.000,123.869 164.482,122.516 158.600 C 120.941 151.753,119.994 148.342,120.184 150.200 M133.823 149.667 C 133.726 149.960,133.545 151.640,133.422 153.400 C 133.299 155.160,133.027 158.220,132.818 160.200 C 132.609 162.180,132.348 165.600,132.239 167.800 C 131.995 172.705,132.361 170.383,133.422 160.284 C 134.147 153.388,134.576 151.899,134.978 154.892 C 135.288 157.207,136.650 167.982,137.620 175.800 C 138.057 179.320,138.672 184.270,138.987 186.800 C 139.302 189.330,139.930 194.370,140.381 198.000 C 140.833 201.630,141.387 205.950,141.611 207.600 C 141.836 209.250,142.375 213.210,142.810 216.400 C 143.245 219.590,143.870 224.630,144.198 227.600 C 144.526 230.570,145.143 235.700,145.567 239.000 C 147.121 251.077,147.129 251.134,148.578 262.800 C 150.188 275.750,150.477 277.960,150.777 279.600 L 151.105 281.400 151.149 279.800 C 151.173 278.920,150.909 276.130,150.563 273.600 C 149.826 268.226,149.738 267.507,149.161 262.200 C 148.921 260.000,148.576 257.840,148.394 257.400 C 148.212 256.960,147.946 254.890,147.802 252.800 C 147.659 250.710,147.377 247.830,147.175 246.400 C 146.564 242.078,146.053 237.944,145.790 235.200 C 145.652 233.770,145.387 232.240,145.201 231.800 C 145.014 231.360,144.748 229.380,144.609 227.400 C 144.471 225.420,144.193 222.630,143.993 221.200 C 143.793 219.770,143.446 216.980,143.220 215.000 C 142.995 213.020,142.622 210.050,142.391 208.400 C 141.595 202.703,141.188 199.391,140.965 196.800 C 140.843 195.370,140.589 193.840,140.402 193.400 C 140.215 192.960,139.947 191.070,139.807 189.200 C 139.666 187.330,139.383 184.630,139.179 183.200 C 138.974 181.770,138.615 178.980,138.382 177.000 C 138.149 175.020,137.784 172.050,137.569 170.400 C 136.805 164.514,136.437 161.360,136.191 158.600 C 136.054 157.060,135.778 155.440,135.578 155.000 C 135.377 154.560,135.165 153.134,135.107 151.832 C 135.006 149.606,134.261 148.349,133.823 149.667 M141.814 152.600 C 141.985 156.156,142.360 159.540,143.188 165.000 C 143.421 166.540,143.713 169.150,143.837 170.800 C 143.960 172.450,144.215 174.160,144.402 174.600 C 144.590 175.040,144.841 176.660,144.961 178.200 C 145.476 184.863,145.678 186.647,146.001 187.400 C 146.190 187.840,146.448 189.460,146.575 191.000 C 147.164 198.122,147.271 199.050,147.594 199.800 C 147.783 200.240,148.051 202.130,148.189 204.000 C 148.328 205.870,148.614 208.480,148.826 209.800 C 149.214 212.228,149.786 217.152,150.253 222.110 C 150.687 226.703,151.704 225.905,152.178 220.600 C 152.588 216.019,153.104 211.121,153.591 207.200 C 153.824 205.330,154.195 202.000,154.417 199.800 C 154.639 197.600,154.990 194.450,155.196 192.800 C 155.626 189.366,156.086 181.600,155.823 182.200 C 155.727 182.420,155.454 184.580,155.216 187.000 C 154.569 193.587,153.623 202.054,152.982 207.000 C 152.669 209.420,152.211 213.560,151.965 216.200 C 151.456 221.666,150.987 222.756,150.610 219.346 C 150.467 218.055,150.011 214.390,149.596 211.200 C 149.182 208.010,148.731 204.410,148.595 203.200 C 148.460 201.990,148.191 200.010,147.997 198.800 C 147.804 197.590,147.445 194.710,147.199 192.400 C 146.952 190.090,146.504 186.400,146.202 184.200 C 145.900 182.000,145.361 177.770,145.004 174.800 C 144.647 171.830,144.002 166.790,143.571 163.600 C 143.140 160.410,142.529 155.820,142.214 153.400 L 141.641 149.000 141.814 152.600 M216.119 155.788 C 212.454 159.442,211.415 160.276,211.010 159.888 C 205.052 154.171,203.527 152.800,203.131 152.800 C 202.686 152.800,209.242 159.181,210.860 160.323 C 211.831 161.008,212.042 160.848,217.174 155.500 C 222.648 149.797,221.930 149.992,216.119 155.788 M125.200 167.000 C 125.200 168.245,124.517 168.319,124.282 167.100 C 124.185 166.593,124.089 166.898,124.063 167.800 C 124.034 168.836,124.294 169.753,124.800 170.400 L 125.582 171.400 125.591 168.700 C 125.596 167.215,125.510 166.000,125.400 166.000 C 125.290 166.000,125.200 166.450,125.200 167.000 M54.700 172.533 C 52.821 177.121,56.788 184.640,61.900 186.182 C 63.334 186.615,62.941 185.812,61.455 185.274 C 57.764 183.940,55.270 180.028,55.116 175.333 C 55.048 173.269,54.875 172.105,54.700 172.533 M116.853 174.053 C 116.384 175.183,116.000 176.407,116.000 176.773 C 116.000 178.379,115.744 178.400,95.720 178.400 C 73.981 178.400,76.082 178.093,74.009 181.571 C 73.008 183.250,69.891 185.600,68.665 185.600 C 68.299 185.600,68.000 185.800,68.000 186.043 C 68.000 187.904,74.142 183.516,75.589 180.621 L 76.200 179.400 95.641 179.296 C 117.675 179.179,115.741 179.508,116.993 175.664 C 118.043 172.437,118.058 172.483,122.243 191.600 C 122.989 195.010,123.864 198.880,124.187 200.200 C 124.510 201.520,125.149 204.310,125.606 206.400 C 126.956 212.564,128.000 214.823,128.000 211.576 C 128.000 210.903,127.847 210.447,127.661 210.563 C 127.474 210.678,127.084 209.744,126.793 208.486 C 126.503 207.229,126.135 206.020,125.976 205.800 C 125.816 205.580,125.585 204.590,125.461 203.600 C 125.054 200.331,124.716 198.795,124.356 198.573 C 124.160 198.452,124.000 197.826,124.000 197.182 C 124.000 195.838,123.273 192.530,122.753 191.505 C 122.559 191.123,122.400 190.361,122.400 189.811 C 122.400 188.744,121.699 185.523,121.178 184.200 C 121.005 183.760,120.761 182.770,120.635 182.000 C 120.509 181.230,120.216 179.790,119.983 178.800 C 119.750 177.810,119.404 176.190,119.213 175.200 C 118.476 171.374,118.053 171.168,116.853 174.053 M131.200 175.023 C 131.200 176.026,131.011 178.065,130.780 179.553 C 130.549 181.041,130.414 183.506,130.480 185.030 C 130.587 187.503,130.655 187.199,131.114 182.200 C 131.397 179.120,131.733 175.835,131.860 174.900 C 132.012 173.779,131.939 173.200,131.645 173.200 C 131.383 173.200,131.200 173.951,131.200 175.023 M156.594 176.810 C 156.119 177.578,155.893 181.861,156.362 181.200 C 156.596 180.870,156.791 179.744,156.794 178.697 L 156.800 176.794 207.162 176.897 C 234.861 176.954,257.440 176.865,257.338 176.700 C 257.040 176.218,156.892 176.328,156.594 176.810 M275.290 179.695 C 274.350 181.513,273.585 183.225,273.590 183.500 C 273.598 183.890,276.670 184.000,287.592 184.000 L 301.585 184.000 301.813 183.092 C 301.938 182.592,301.987 180.927,301.920 179.392 L 301.800 176.600 289.400 176.495 L 277.000 176.389 275.290 179.695 M301.516 180.022 L 301.400 183.244 288.023 183.212 C 280.666 183.194,274.572 183.105,274.481 183.015 C 274.391 182.924,275.068 181.489,275.986 179.825 L 277.656 176.800 289.644 176.800 L 301.632 176.800 301.516 180.022 M254.217 179.800 C 252.791 181.010,251.448 182.000,251.232 182.000 C 251.016 182.000,250.689 182.269,250.505 182.598 C 250.212 183.123,244.760 183.209,206.385 183.298 L 162.600 183.400 162.316 185.800 C 162.159 187.120,161.840 189.730,161.606 191.600 C 161.373 193.470,161.010 196.800,160.801 199.000 C 160.592 201.200,160.241 204.260,160.023 205.800 C 159.804 207.340,159.538 210.670,159.431 213.200 L 159.237 217.800 159.994 211.200 C 160.411 207.570,161.117 201.270,161.564 197.200 C 162.754 186.359,162.875 185.469,163.269 184.700 C 163.608 184.040,166.075 184.000,206.514 183.999 L 249.400 183.997 250.783 183.154 C 251.544 182.690,252.624 181.902,253.183 181.402 C 256.792 178.179,257.369 177.621,257.105 177.611 C 256.943 177.605,255.644 178.590,254.217 179.800 M129.880 188.400 C 129.763 188.730,129.547 190.440,129.400 192.200 C 129.253 193.960,128.954 197.290,128.736 199.600 C 128.140 205.893,127.947 210.542,128.404 207.600 C 129.574 200.062,130.634 186.274,129.880 188.400 M243.455 191.192 C 242.605 191.835,240.914 193.225,239.697 194.281 C 238.480 195.336,237.097 196.470,236.624 196.800 C 236.151 197.130,235.216 197.899,234.546 198.509 C 233.876 199.119,232.984 199.875,232.564 200.189 C 231.837 200.733,231.845 200.749,232.734 200.525 C 233.247 200.395,233.762 200.044,233.877 199.744 C 233.992 199.445,234.291 199.195,234.543 199.189 C 234.794 199.182,235.833 198.417,236.851 197.489 C 237.869 196.560,240.070 194.743,241.742 193.452 C 243.414 192.161,244.988 190.856,245.240 190.552 C 246.008 189.626,245.088 189.956,243.455 191.192 M227.591 204.945 C 223.446 209.040,221.200 211.511,221.200 211.977 C 221.200 212.141,220.817 212.619,220.349 213.038 C 219.605 213.703,218.496 215.301,215.377 220.200 C 212.548 224.644,210.801 230.814,210.800 236.367 C 210.800 240.136,211.217 239.826,211.376 235.939 C 211.548 231.737,212.057 228.000,212.457 228.000 C 212.646 228.000,212.800 227.733,212.800 227.406 C 212.800 227.080,213.340 225.698,214.000 224.335 C 214.660 222.973,215.200 221.635,215.200 221.362 C 215.200 221.090,215.339 220.807,215.509 220.733 C 215.679 220.660,216.666 219.250,217.703 217.600 C 218.739 215.950,220.265 213.857,221.094 212.948 C 221.922 212.040,223.221 210.532,223.979 209.598 C 224.738 208.663,226.865 206.392,228.708 204.549 C 230.550 202.707,231.905 201.200,231.720 201.200 C 231.534 201.200,229.676 202.885,227.591 204.945 M158.224 221.281 C 157.887 225.047,157.359 229.997,156.825 234.400 C 156.377 238.087,155.922 245.948,156.188 245.400 C 156.295 245.180,156.663 242.300,157.007 239.000 C 157.350 235.700,157.970 229.760,158.383 225.800 C 158.797 221.840,158.997 218.456,158.828 218.281 C 158.660 218.105,158.388 219.455,158.224 221.281 M214.635 232.223 C 214.054 232.803,212.000 238.824,212.000 239.944 C 212.000 240.221,211.820 240.336,211.600 240.200 C 211.380 240.064,211.200 240.323,211.200 240.776 C 211.200 243.140,212.154 241.412,213.615 236.400 C 214.096 234.750,214.744 232.995,215.054 232.500 C 215.710 231.454,215.525 231.332,214.635 232.223 M201.500 235.082 C 201.995 235.178,202.805 235.178,203.300 235.082 C 203.795 234.987,203.390 234.909,202.400 234.909 C 201.410 234.909,201.005 234.987,201.500 235.082 M234.180 250.400 C 234.180 258.210,234.234 261.405,234.299 257.500 C 234.365 253.595,234.365 247.205,234.299 243.300 C 234.234 239.395,234.180 242.590,234.180 250.400 M280.905 237.087 C 281.514 237.179,282.414 237.177,282.905 237.082 C 283.397 236.987,282.900 236.911,281.800 236.914 C 280.700 236.917,280.297 236.995,280.905 237.087 M202.100 243.487 C 202.705 243.578,203.695 243.578,204.300 243.487 C 204.905 243.395,204.410 243.320,203.200 243.320 C 201.990 243.320,201.495 243.395,202.100 243.487 M246.842 243.749 C 246.520 244.137,246.420 247.339,246.500 254.649 L 246.614 265.000 246.707 254.487 C 246.800 243.999,246.802 243.973,247.700 243.612 C 248.309 243.368,248.390 243.243,247.949 243.225 C 247.591 243.211,247.093 243.447,246.842 243.749 M249.300 243.476 C 249.685 243.576,250.315 243.576,250.700 243.476 C 251.085 243.375,250.770 243.293,250.000 243.293 C 249.230 243.293,248.915 243.375,249.300 243.476 M254.380 245.310 C 254.575 246.958,254.583 246.967,254.719 245.649 C 254.796 244.906,254.706 244.146,254.520 243.960 C 254.333 243.773,254.271 244.381,254.380 245.310 M332.093 246.800 C 332.093 247.570,332.175 247.885,332.276 247.500 C 332.376 247.115,332.376 246.485,332.276 246.100 C 332.175 245.715,332.093 246.030,332.093 246.800 M155.445 246.443 C 155.349 246.749,155.066 249.520,154.815 252.600 C 154.565 255.680,154.268 258.740,154.155 259.400 C 153.485 263.324,152.510 275.674,153.002 274.000 C 153.100 273.670,153.449 270.790,153.779 267.600 C 154.109 264.410,154.754 258.315,155.212 254.056 C 155.941 247.275,156.023 244.593,155.445 246.443 M229.701 250.200 C 229.705 251.080,229.787 251.393,229.883 250.895 C 229.979 250.398,229.975 249.678,229.875 249.295 C 229.775 248.913,229.696 249.320,229.701 250.200 M268.109 251.600 C 268.109 252.590,268.187 252.995,268.282 252.500 C 268.378 252.005,268.378 251.195,268.282 250.700 C 268.187 250.205,268.109 250.610,268.109 251.600 M328.700 250.682 C 329.195 250.778,330.005 250.778,330.500 250.682 C 330.995 250.587,330.590 250.509,329.600 250.509 C 328.610 250.509,328.205 250.587,328.700 250.682 M180.127 252.600 C 180.196 253.288,180.516 253.405,182.404 253.438 L 184.600 253.476 182.525 253.318 C 181.010 253.203,180.396 252.977,180.248 252.480 C 180.100 251.983,180.068 252.015,180.127 252.600 M324.901 254.200 C 324.905 255.080,324.987 255.393,325.083 254.895 C 325.179 254.398,325.175 253.678,325.075 253.295 C 324.975 252.913,324.896 253.320,324.901 254.200 M344.900 256.697 C 346.605 256.772,349.395 256.772,351.100 256.697 C 352.805 256.622,351.410 256.561,348.000 256.561 C 344.590 256.561,343.195 256.622,344.900 256.697 M365.693 262.000 C 365.693 262.770,365.775 263.085,365.876 262.700 C 365.976 262.315,365.976 261.685,365.876 261.300 C 365.775 260.915,365.693 261.230,365.693 262.000 M196.000 264.117 C 196.000 264.654,195.425 264.791,192.700 264.902 L 189.400 265.037 192.713 265.119 C 195.898 265.197,197.210 264.676,196.249 263.716 C 196.112 263.579,196.000 263.759,196.000 264.117 M229.600 264.333 C 229.600 264.590,229.015 264.827,228.300 264.860 C 227.021 264.919,227.019 264.923,228.149 265.091 C 229.295 265.262,230.391 264.658,229.873 264.140 C 229.723 263.990,229.600 264.077,229.600 264.333 M307.160 264.922 C 307.338 265.099,308.545 265.186,309.842 265.117 L 312.200 264.990 309.518 264.795 C 308.043 264.688,306.982 264.745,307.160 264.922 M172.700 265.082 C 173.195 265.178,174.005 265.178,174.500 265.082 C 174.995 264.987,174.590 264.909,173.600 264.909 C 172.610 264.909,172.205 264.987,172.700 265.082 M236.512 265.095 C 237.564 265.177,239.184 265.176,240.112 265.092 C 241.040 265.008,240.180 264.941,238.200 264.942 C 236.220 264.943,235.460 265.012,236.512 265.095 M247.905 265.083 C 248.402 265.179,249.122 265.175,249.505 265.075 C 249.887 264.975,249.480 264.896,248.600 264.901 C 247.720 264.905,247.407 264.987,247.905 265.083 M251.905 265.083 C 252.402 265.179,253.122 265.175,253.505 265.075 C 253.887 264.975,253.480 264.896,252.600 264.901 C 251.720 264.905,251.407 264.987,251.905 265.083 M319.312 265.095 C 320.364 265.177,321.984 265.176,322.912 265.092 C 323.840 265.008,322.980 264.941,321.000 264.942 C 319.020 264.943,318.260 265.012,319.312 265.095 M152.288 275.333 C 152.130 275.736,152.022 277.086,152.049 278.333 L 152.098 280.600 152.453 278.200 C 152.850 275.519,152.769 274.111,152.288 275.333 " stroke="none" fill="#e0979b" fill-rule="evenodd"></path><path id="path4" d="M130.514 120.600 C 130.517 121.700,130.595 122.103,130.687 121.495 C 130.779 120.886,130.777 119.986,130.682 119.495 C 130.587 119.003,130.511 119.500,130.514 120.600 M173.505 132.283 C 174.002 132.379,174.722 132.375,175.105 132.275 C 175.487 132.175,175.080 132.096,174.200 132.101 C 173.320 132.105,173.007 132.187,173.505 132.283 M237.100 132.282 C 237.595 132.378,238.405 132.378,238.900 132.282 C 239.395 132.187,238.990 132.109,238.000 132.109 C 237.010 132.109,236.605 132.187,237.100 132.282 M128.962 133.754 C 128.845 134.059,128.810 135.094,128.883 136.054 C 129.013 137.744,129.023 137.726,129.209 135.499 C 129.403 133.165,129.345 132.756,128.962 133.754 M167.200 133.945 C 167.200 134.134,167.650 134.203,168.200 134.098 C 168.750 133.993,169.200 133.838,169.200 133.753 C 169.200 133.669,168.750 133.600,168.200 133.600 C 167.650 133.600,167.200 133.755,167.200 133.945 M241.000 143.190 C 242.540 143.335,243.971 143.307,244.180 143.127 C 244.389 142.947,243.129 142.828,241.380 142.863 L 238.200 142.926 241.000 143.190 M140.847 148.676 C 140.984 150.768,141.504 151.835,141.553 150.124 C 141.579 149.202,141.420 148.336,141.200 148.200 C 140.980 148.064,140.821 148.278,140.847 148.676 M119.474 148.700 C 119.378 148.865,119.445 149.360,119.622 149.800 C 119.903 150.498,119.947 150.460,119.972 149.500 C 120.000 148.415,119.812 148.114,119.474 148.700 M159.029 149.429 C 158.171 150.286,158.239 150.514,159.200 150.000 C 159.640 149.765,160.000 149.398,160.000 149.186 C 160.000 148.642,159.753 148.704,159.029 149.429 M135.301 153.400 C 135.305 154.280,135.387 154.593,135.483 154.095 C 135.579 153.598,135.575 152.878,135.475 152.495 C 135.375 152.113,135.296 152.520,135.301 153.400 M133.314 154.200 C 133.317 155.300,133.395 155.703,133.487 155.095 C 133.579 154.486,133.577 153.586,133.482 153.095 C 133.387 152.603,133.311 153.100,133.314 154.200 M125.867 165.067 C 125.720 165.213,125.621 165.978,125.646 166.767 L 125.692 168.200 126.004 166.600 C 126.331 164.919,126.305 164.628,125.867 165.067 M123.693 167.200 C 123.693 167.970,123.775 168.285,123.876 167.900 C 123.976 167.515,123.976 166.885,123.876 166.500 C 123.775 166.115,123.693 166.430,123.693 167.200 M131.567 171.000 C 131.341 173.002,131.405 173.529,131.824 173.110 C 131.947 172.987,131.990 172.012,131.920 170.943 L 131.793 169.000 131.567 171.000 M275.800 171.200 C 275.646 172.110,275.604 172.938,275.707 173.040 C 275.810 173.143,276.013 172.477,276.160 171.560 C 276.307 170.643,276.348 169.815,276.253 169.720 C 276.158 169.624,275.954 170.290,275.800 171.200 M55.200 172.600 C 55.200 173.150,55.269 173.600,55.353 173.600 C 55.438 173.600,55.593 173.150,55.698 172.600 C 55.803 172.050,55.734 171.600,55.545 171.600 C 55.355 171.600,55.200 172.050,55.200 172.600 M106.141 172.455 C 106.658 172.756,107.141 172.760,107.741 172.470 C 108.490 172.107,108.396 172.052,107.000 172.039 C 105.669 172.027,105.525 172.097,106.141 172.455 M156.832 177.500 C 156.850 177.918,156.944 177.999,157.065 177.700 C 157.225 177.304,167.559 177.200,206.857 177.200 C 244.617 177.200,256.378 177.312,256.158 177.668 C 255.961 177.987,256.091 178.051,256.567 177.868 C 256.951 177.721,257.351 177.600,257.456 177.600 C 257.561 177.600,257.536 177.420,257.400 177.200 C 256.893 176.380,156.795 176.678,156.832 177.500 M290.400 177.190 L 301.000 177.400 301.000 180.462 C 301.000 182.147,301.135 183.441,301.300 183.339 C 301.465 183.236,301.600 181.723,301.600 179.976 L 301.600 176.800 290.700 176.890 L 279.800 176.980 290.400 177.190 M138.493 178.800 C 138.493 179.570,138.575 179.885,138.676 179.500 C 138.776 179.115,138.776 178.485,138.676 178.100 C 138.575 177.715,138.493 178.030,138.493 178.800 M156.249 181.415 C 156.112 181.773,156.021 182.546,156.046 183.133 C 156.080 183.932,156.170 183.798,156.404 182.600 C 156.735 180.900,156.662 180.340,156.249 181.415 M129.990 186.481 C 129.884 187.516,129.945 188.215,130.126 188.034 C 130.307 187.853,130.393 187.007,130.319 186.153 L 130.183 184.600 129.990 186.481 M62.800 186.060 C 62.800 186.381,66.342 186.709,67.300 186.477 C 68.781 186.117,67.889 185.800,65.399 185.800 C 63.969 185.800,62.800 185.917,62.800 186.060 M162.093 186.800 C 162.093 187.570,162.175 187.885,162.276 187.500 C 162.376 187.115,162.376 186.485,162.276 186.100 C 162.175 185.715,162.093 186.030,162.093 186.800 M146.114 189.400 C 146.117 190.500,146.195 190.903,146.287 190.295 C 146.379 189.686,146.377 188.786,146.282 188.295 C 146.187 187.803,146.111 188.300,146.114 189.400 M122.428 190.276 C 122.413 190.758,122.580 191.264,122.800 191.400 C 123.273 191.692,123.273 191.301,122.800 190.200 C 122.469 189.429,122.455 189.431,122.428 190.276 M154.493 197.600 C 154.493 198.370,154.575 198.685,154.676 198.300 C 154.776 197.915,154.776 197.285,154.676 196.900 C 154.575 196.515,154.493 196.830,154.493 197.600 M147.590 201.519 L 147.783 203.400 147.919 201.847 C 147.993 200.993,147.907 200.147,147.726 199.966 C 147.545 199.785,147.484 200.484,147.590 201.519 M160.501 201.400 C 160.505 202.280,160.587 202.593,160.683 202.095 C 160.779 201.598,160.775 200.878,160.675 200.495 C 160.575 200.113,160.496 200.520,160.501 201.400 M128.493 201.600 C 128.493 202.370,128.575 202.685,128.676 202.300 C 128.776 201.915,128.776 201.285,128.676 200.900 C 128.575 200.515,128.493 200.830,128.493 201.600 M231.956 201.300 C 231.486 202.195,231.488 202.196,232.342 201.438 C 233.295 200.591,233.382 200.400,232.814 200.400 C 232.602 200.400,232.216 200.805,231.956 201.300 M244.000 201.993 C 243.067 202.716,243.058 202.753,243.872 202.545 C 244.352 202.422,244.841 202.069,244.960 201.761 C 245.232 201.052,245.206 201.058,244.000 201.993 M229.192 203.810 C 228.419 204.741,228.971 204.917,229.798 204.002 C 230.197 203.561,230.338 203.200,230.111 203.200 C 229.884 203.200,229.470 203.474,229.192 203.810 M127.646 209.067 C 127.621 209.324,127.484 209.864,127.341 210.267 C 127.140 210.836,127.194 210.897,127.579 210.542 C 127.852 210.291,127.989 209.751,127.884 209.342 C 127.779 208.934,127.672 208.810,127.646 209.067 M149.073 213.200 C 149.204 214.190,149.376 215.075,149.456 215.167 C 149.757 215.514,149.528 212.964,149.190 212.200 C 148.953 211.666,148.914 211.998,149.073 213.200 M158.710 215.700 C 158.618 216.855,158.690 217.971,158.871 218.180 C 159.052 218.389,159.200 217.444,159.200 216.080 C 159.200 213.051,158.937 212.847,158.710 215.700 M143.293 216.400 C 143.293 217.170,143.375 217.485,143.476 217.100 C 143.576 216.715,143.576 216.085,143.476 215.700 C 143.375 215.315,143.293 215.630,143.293 216.400 M144.800 229.910 C 144.800 230.813,144.963 231.653,145.162 231.776 C 145.368 231.904,145.431 231.270,145.307 230.300 C 145.019 228.048,144.800 227.879,144.800 229.910 M157.293 229.600 C 157.293 230.370,157.375 230.685,157.476 230.300 C 157.576 229.915,157.576 229.285,157.476 228.900 C 157.375 228.515,157.293 228.830,157.293 229.600 M199.454 236.029 C 198.135 237.067,197.951 239.869,199.131 240.938 C 200.293 241.989,200.869 241.706,199.782 240.618 C 197.163 237.999,199.616 234.989,203.739 235.762 C 206.014 236.189,206.730 238.906,205.018 240.618 C 204.379 241.257,204.231 241.600,204.596 241.600 C 205.455 241.600,206.400 239.972,206.400 238.493 C 206.400 235.513,202.065 233.975,199.454 236.029 M247.965 235.713 C 245.900 237.298,246.321 241.677,248.529 241.579 C 248.788 241.567,248.595 241.276,248.100 240.930 C 246.749 239.988,246.815 237.071,248.208 236.158 C 249.615 235.236,252.710 235.601,253.684 236.805 C 254.192 237.432,254.400 237.515,254.400 237.090 C 254.400 235.528,249.556 234.491,247.965 235.713 M234.681 235.852 C 234.301 236.232,234.320 264.800,234.700 264.800 C 234.865 264.800,234.951 258.313,234.890 250.384 L 234.780 235.967 238.090 236.084 L 241.400 236.200 241.400 250.500 C 241.400 258.365,241.537 264.800,241.705 264.800 C 241.873 264.800,241.963 258.275,241.905 250.300 L 241.800 235.800 238.381 235.686 C 236.501 235.623,234.836 235.698,234.681 235.852 M181.700 237.476 C 182.085 237.576,182.715 237.576,183.100 237.476 C 183.485 237.375,183.170 237.293,182.400 237.293 C 181.630 237.293,181.315 237.375,181.700 237.476 M184.600 237.462 C 185.040 237.555,185.788 237.713,186.262 237.814 C 187.008 237.972,187.706 239.759,191.418 251.009 C 193.780 258.166,195.792 263.941,195.891 263.842 C 196.195 263.538,187.598 237.847,187.083 237.519 C 186.817 237.350,185.970 237.230,185.200 237.253 C 184.430 237.275,184.160 237.369,184.600 237.462 M280.311 237.493 C 281.251 237.578,282.691 237.577,283.511 237.491 C 284.330 237.405,283.560 237.336,281.800 237.337 C 280.040 237.339,279.370 237.409,280.311 237.493 M176.938 238.217 C 176.566 239.187,177.085 239.362,177.582 238.434 C 177.891 237.856,177.897 237.600,177.602 237.600 C 177.367 237.600,177.068 237.878,176.938 238.217 M275.405 238.427 C 272.252 240.000,268.775 244.578,268.809 247.111 C 268.815 247.490,269.246 246.763,269.767 245.495 C 271.437 241.433,273.000 239.825,276.677 238.389 C 277.735 237.976,278.240 237.636,277.800 237.635 C 277.360 237.633,276.282 237.990,275.405 238.427 M287.115 238.377 C 289.748 239.274,289.836 239.365,289.265 240.617 C 288.514 242.264,288.765 242.729,289.580 241.200 C 290.636 239.218,288.867 237.550,285.800 237.634 C 285.360 237.646,285.952 237.980,287.115 238.377 M254.432 238.845 C 254.414 239.200,253.905 239.992,253.300 240.605 C 252.695 241.217,252.459 241.635,252.776 241.534 C 253.633 241.259,254.926 239.363,254.679 238.741 C 254.521 238.344,254.455 238.372,254.432 238.845 M174.624 245.483 C 173.593 248.737,172.556 251.901,172.321 252.513 C 172.085 253.125,171.988 253.722,172.106 253.839 C 172.224 253.957,173.348 250.881,174.604 247.004 C 175.861 243.127,176.801 239.868,176.694 239.761 C 176.587 239.653,175.655 242.229,174.624 245.483 M201.700 241.876 C 202.085 241.976,202.715 241.976,203.100 241.876 C 203.485 241.775,203.170 241.693,202.400 241.693 C 201.630 241.693,201.315 241.775,201.700 241.876 M249.905 241.883 C 250.402 241.979,251.122 241.975,251.505 241.875 C 251.887 241.775,251.480 241.696,250.600 241.701 C 249.720 241.705,249.407 241.787,249.905 241.883 M288.148 243.443 C 287.999 243.859,287.804 244.335,287.715 244.500 C 287.626 244.665,287.722 244.800,287.930 244.800 C 288.329 244.800,288.891 243.157,288.594 242.860 C 288.497 242.764,288.297 243.026,288.148 243.443 M155.580 244.690 C 155.471 245.619,155.533 246.227,155.720 246.040 C 155.906 245.854,155.996 245.094,155.919 244.351 C 155.783 243.033,155.775 243.042,155.580 244.690 M181.875 243.458 C 181.724 243.610,181.603 244.198,181.606 244.767 C 181.611 245.560,181.699 245.663,181.984 245.212 C 182.539 244.335,182.724 244.720,183.806 248.984 C 184.963 253.547,184.947 253.600,182.400 253.600 C 180.096 253.600,179.787 253.258,180.404 251.389 C 180.657 250.621,180.789 249.770,180.697 249.497 C 180.606 249.223,180.298 249.965,180.015 251.145 C 179.401 253.697,179.645 253.988,182.400 253.988 C 185.469 253.988,185.487 253.929,184.135 248.361 C 183.022 243.777,182.559 242.774,181.875 243.458 M216.400 243.566 C 215.850 243.724,217.380 243.841,219.800 243.826 C 225.833 243.790,227.756 244.875,229.320 249.200 C 229.487 249.663,229.544 249.636,229.568 249.080 C 229.747 245.008,222.281 241.881,216.400 243.566 M278.955 243.962 C 273.932 247.025,275.533 259.339,280.931 259.157 C 282.126 259.117,282.104 259.093,280.550 258.743 C 277.823 258.131,276.449 255.753,276.420 251.600 C 276.371 244.597,279.891 242.189,286.600 244.636 C 287.040 244.796,287.262 244.775,287.093 244.590 C 285.816 243.187,280.853 242.805,278.955 243.962 M299.200 243.564 C 298.650 243.720,300.308 243.837,302.884 243.824 C 305.460 243.811,307.260 243.678,306.884 243.528 C 305.990 243.173,300.485 243.199,299.200 243.564 M327.600 243.716 C 327.050 243.970,326.508 244.273,326.397 244.389 C 326.285 244.505,325.702 245.034,325.103 245.564 L 324.013 246.528 323.401 245.064 L 322.789 243.600 320.244 243.600 C 318.691 243.600,317.536 243.796,317.282 244.102 C 316.727 244.770,316.840 264.479,317.400 264.667 C 317.660 264.753,317.800 261.189,317.800 254.500 L 317.800 244.200 320.112 244.080 C 322.391 243.961,322.432 243.978,322.977 245.280 C 323.814 247.279,323.968 247.296,325.899 245.596 C 328.494 243.313,332.000 242.909,332.000 244.894 C 332.000 245.355,332.112 245.622,332.248 245.485 C 333.832 243.902,330.195 242.517,327.600 243.716 M341.294 243.534 C 341.015 243.710,342.516 243.863,344.629 243.873 C 346.880 243.883,348.249 243.750,347.935 243.552 C 347.255 243.120,341.967 243.106,341.294 243.534 M198.667 243.867 C 198.520 244.013,198.441 249.188,198.490 255.367 L 198.581 266.600 198.790 255.400 L 199.000 244.200 202.300 244.084 L 205.600 243.968 205.600 256.410 C 205.600 264.842,205.455 269.134,205.150 269.726 C 204.452 271.082,203.096 272.448,202.045 272.854 C 201.519 273.056,201.187 273.321,201.307 273.441 C 202.273 274.406,205.354 271.052,205.975 268.360 C 206.700 265.214,206.522 244.132,205.767 243.843 C 204.909 243.513,199.000 243.533,198.667 243.867 M247.081 243.852 C 246.701 244.232,246.720 264.800,247.100 264.800 C 247.265 264.800,247.400 260.165,247.400 254.500 L 247.400 244.200 250.600 244.200 L 253.800 244.200 253.907 254.172 C 253.990 261.883,253.899 264.217,253.507 264.466 C 253.140 264.699,253.196 264.789,253.707 264.794 C 254.367 264.800,254.406 264.113,254.307 254.300 L 254.200 243.800 250.781 243.686 C 248.901 243.623,247.236 243.698,247.081 243.852 M213.100 244.465 C 211.757 244.955,211.705 245.780,212.860 248.238 C 213.755 250.143,215.190 250.441,217.200 249.138 C 217.809 248.744,217.065 248.843,214.901 249.443 C 214.135 249.656,213.885 249.435,213.210 247.946 C 212.137 245.582,212.176 245.401,213.900 244.693 C 215.549 244.017,214.863 243.821,213.100 244.465 M295.900 244.520 C 294.618 245.026,294.588 245.236,295.437 247.728 C 296.267 250.162,296.380 250.207,299.563 249.382 C 302.442 248.635,304.157 248.790,304.557 249.833 C 304.960 250.882,304.569 251.068,301.396 251.337 C 296.727 251.731,292.800 253.871,292.800 256.021 C 292.800 256.294,293.207 255.907,293.704 255.159 C 294.967 253.259,297.496 252.157,301.329 251.837 C 304.959 251.535,305.200 251.444,305.200 250.386 C 305.200 248.421,302.025 247.996,297.759 249.388 C 297.049 249.620,296.784 249.378,296.059 247.836 C 294.938 245.451,294.946 245.413,296.700 244.693 C 297.525 244.355,297.930 244.079,297.600 244.081 C 297.270 244.083,296.505 244.281,295.900 244.520 M308.600 244.620 C 310.068 245.712,310.595 246.222,311.279 247.215 C 311.659 247.766,311.967 247.959,311.979 247.653 C 312.006 246.946,309.063 243.996,308.347 244.013 C 307.992 244.021,308.080 244.234,308.600 244.620 M338.200 244.903 C 336.135 246.413,334.366 249.229,334.442 250.884 C 334.475 251.603,334.583 251.499,334.942 250.400 C 335.712 248.047,336.917 246.401,338.769 245.173 C 339.741 244.528,340.281 244.006,339.969 244.013 C 339.656 244.020,338.860 244.420,338.200 244.903 M350.070 244.902 C 351.945 246.048,353.162 247.613,353.823 249.727 C 354.272 251.161,354.350 251.242,354.373 250.292 C 354.422 248.258,350.891 243.996,349.162 244.002 C 348.853 244.003,349.261 244.408,350.070 244.902 M181.088 246.533 C 180.930 246.936,180.811 247.656,180.825 248.133 C 180.849 248.956,180.871 248.950,181.240 248.025 C 181.454 247.489,181.573 246.769,181.503 246.425 C 181.399 245.911,181.325 245.930,181.088 246.533 M331.600 247.626 C 331.600 248.301,331.414 249.201,331.186 249.626 C 330.860 250.235,330.903 250.400,331.386 250.400 C 331.856 250.400,332.000 249.931,332.000 248.400 C 332.000 247.300,331.910 246.400,331.800 246.400 C 331.690 246.400,331.600 246.952,331.600 247.626 M268.542 251.400 C 268.541 253.380,268.608 254.240,268.692 253.312 C 268.776 252.384,268.777 250.764,268.695 249.712 C 268.612 248.660,268.543 249.420,268.542 251.400 M343.400 248.483 C 340.235 250.298,340.912 252.000,344.800 252.000 C 347.688 252.000,348.000 251.925,348.000 251.233 C 348.000 248.865,345.422 247.324,343.400 248.483 M219.534 248.781 C 221.209 249.053,221.981 249.655,221.994 250.700 C 221.998 251.044,221.222 251.209,219.500 251.228 C 216.722 251.259,214.297 251.924,216.800 251.968 C 220.416 252.032,222.400 251.536,222.400 250.567 C 222.400 249.345,220.958 248.388,219.211 248.450 C 217.839 248.499,217.847 248.508,219.534 248.781 M311.916 256.503 C 311.826 262.937,311.912 264.801,312.300 264.800 C 312.912 264.800,313.015 249.760,312.410 248.803 C 312.164 248.414,311.992 251.102,311.916 256.503 M346.720 249.280 C 348.000 250.560,347.298 251.200,344.613 251.200 C 342.322 251.200,342.053 251.120,342.268 250.500 C 342.817 248.921,345.599 248.159,346.720 249.280 M325.700 251.070 C 325.205 251.415,324.805 251.991,324.812 252.349 C 324.822 252.900,324.890 252.887,325.252 252.264 C 325.488 251.859,326.247 251.281,326.940 250.979 C 327.840 250.588,327.971 250.433,327.400 250.437 C 326.960 250.440,326.195 250.724,325.700 251.070 M229.762 257.800 C 229.762 261.320,229.824 262.706,229.898 260.881 C 229.972 259.056,229.972 256.176,229.897 254.481 C 229.822 252.786,229.761 254.280,229.762 257.800 M213.000 252.561 C 208.936 254.355,208.367 261.570,212.084 264.174 C 213.668 265.283,213.830 264.840,212.301 263.579 C 208.703 260.613,209.507 254.679,213.763 252.785 C 214.663 252.384,215.130 252.051,214.800 252.044 C 214.470 252.037,213.660 252.270,213.000 252.561 M334.124 254.200 C 334.126 255.520,334.201 256.012,334.290 255.293 C 334.379 254.574,334.377 253.494,334.286 252.893 C 334.195 252.292,334.122 252.880,334.124 254.200 M354.381 254.000 L 354.200 255.800 347.900 255.910 L 341.600 256.020 341.600 256.956 C 341.600 258.238,343.452 260.007,344.755 259.970 C 345.734 259.941,345.716 259.909,344.455 259.452 C 343.073 258.952,342.000 257.847,342.000 256.924 C 342.000 256.515,343.360 256.400,348.213 256.400 C 355.089 256.400,354.963 256.452,354.708 253.742 L 354.563 252.200 354.381 254.000 M324.321 259.001 C 324.254 262.191,324.335 264.801,324.500 264.801 C 324.665 264.800,324.800 262.190,324.800 259.000 C 324.800 251.497,324.476 251.497,324.321 259.001 M170.212 259.010 C 169.372 261.645,168.610 264.002,168.519 264.248 C 168.428 264.495,168.679 264.821,169.077 264.972 C 169.597 265.170,169.679 265.125,169.368 264.812 C 169.058 264.499,169.372 263.057,170.478 259.716 C 171.325 257.154,171.956 254.869,171.880 254.639 C 171.803 254.409,171.053 256.376,170.212 259.010 M148.000 256.110 C 148.000 256.683,148.187 257.268,148.416 257.410 C 148.689 257.579,148.738 257.277,148.560 256.534 C 148.192 255.001,148.000 254.856,148.000 256.110 M218.546 255.668 C 216.722 256.551,216.577 260.022,218.364 259.988 C 218.905 259.977,218.896 259.915,218.300 259.568 C 216.413 258.469,217.644 256.350,220.463 255.841 C 221.482 255.658,221.988 255.733,222.131 256.089 C 222.259 256.408,222.349 256.336,222.368 255.900 C 222.405 255.091,220.035 254.947,218.546 255.668 M301.291 255.682 C 299.852 256.392,299.489 259.522,300.800 259.919 C 301.284 260.065,301.304 259.998,300.900 259.570 C 299.544 258.133,300.711 256.109,303.000 255.927 C 305.494 255.729,305.505 258.610,303.014 259.619 C 302.220 259.941,302.221 259.950,303.073 259.975 C 304.235 260.008,305.693 257.945,305.527 256.501 C 305.383 255.251,303.072 254.805,301.291 255.682 M268.827 256.089 C 268.730 258.569,272.134 263.028,275.058 264.250 C 277.253 265.167,277.543 264.819,275.400 263.841 C 273.131 262.806,270.829 260.462,270.051 258.397 C 268.998 255.600,268.857 255.333,268.827 256.089 M154.114 258.200 C 154.117 259.300,154.195 259.703,154.287 259.095 C 154.379 258.486,154.377 257.586,154.282 257.095 C 154.187 256.603,154.111 257.100,154.114 258.200 M292.514 258.600 C 292.517 259.700,292.595 260.103,292.687 259.495 C 292.779 258.886,292.777 257.986,292.682 257.495 C 292.587 257.003,292.511 257.500,292.514 258.600 M221.800 258.070 C 221.580 258.574,220.950 259.211,220.400 259.487 C 219.745 259.815,219.626 259.990,220.056 259.994 C 221.056 260.003,222.508 258.648,222.345 257.857 C 222.222 257.263,222.138 257.296,221.800 258.070 M334.428 257.720 C 334.355 259.589,337.240 263.258,339.549 264.231 C 341.821 265.189,341.930 264.834,339.695 263.753 C 337.402 262.643,335.920 260.996,335.029 258.564 C 334.714 257.704,334.444 257.324,334.428 257.720 M284.800 258.428 C 282.952 258.938,282.547 259.152,283.400 259.167 C 284.060 259.178,285.320 258.929,286.200 258.612 C 288.753 257.692,288.800 257.727,288.800 260.551 C 288.800 263.292,288.563 263.687,286.600 264.209 C 285.791 264.424,285.619 264.580,286.073 264.688 C 288.112 265.173,289.200 263.748,289.200 260.590 C 289.200 257.127,289.315 257.183,284.800 258.428 M358.882 258.993 C 355.887 261.513,358.329 266.106,362.319 265.458 C 363.990 265.187,365.610 263.780,365.575 262.630 C 365.552 261.873,365.515 261.885,365.164 262.764 C 363.689 266.454,357.531 265.081,358.152 261.200 C 358.704 257.744,363.597 257.268,365.017 260.531 C 365.459 261.549,365.572 261.631,365.584 260.944 C 365.633 258.261,361.263 256.989,358.882 258.993 M351.919 258.614 C 351.801 258.732,350.556 259.092,349.152 259.413 C 346.672 259.981,346.656 259.992,348.600 259.815 C 349.700 259.715,351.105 259.513,351.721 259.366 L 352.843 259.099 352.721 261.425 C 352.602 263.712,352.576 263.759,351.200 264.128 C 350.430 264.334,350.034 264.588,350.320 264.692 C 351.780 265.220,353.110 263.984,353.376 261.850 C 353.719 259.112,353.005 257.528,351.919 258.614 M177.879 259.854 C 177.726 260.008,177.605 260.418,177.612 260.767 C 177.622 261.303,177.687 261.293,178.032 260.700 C 178.377 260.107,179.052 260.000,182.428 260.000 C 186.797 260.000,186.756 259.977,187.373 262.872 C 187.620 264.034,188.588 265.200,189.305 265.200 C 189.551 265.200,189.420 264.957,189.013 264.659 C 188.606 264.361,187.981 263.146,187.623 261.959 L 186.973 259.800 182.566 259.688 C 180.141 259.626,178.032 259.701,177.879 259.854 M292.801 261.272 C 292.800 262.104,295.293 264.805,296.047 264.787 C 296.351 264.780,296.084 264.390,295.453 263.920 C 294.822 263.450,293.968 262.510,293.555 261.832 C 293.072 261.042,292.802 260.841,292.801 261.272 M176.999 262.714 C 176.832 263.437,176.318 264.292,175.858 264.614 C 175.160 265.103,175.134 265.200,175.701 265.200 C 176.499 265.200,177.724 263.043,177.476 262.073 C 177.366 261.641,177.195 261.871,176.999 262.714 M222.146 262.860 C 221.014 264.110,218.931 264.800,216.284 264.800 C 213.767 264.800,213.423 265.116,215.572 265.455 C 217.216 265.714,220.868 264.630,221.792 263.609 C 222.765 262.534,223.375 262.589,223.927 263.800 C 224.178 264.350,224.595 264.800,224.853 264.800 C 225.144 264.800,225.071 264.521,224.662 264.069 C 224.298 263.666,224.000 263.145,224.000 262.911 C 224.000 262.092,222.869 262.061,222.146 262.860 M303.855 263.441 C 302.137 264.641,301.599 264.804,299.255 264.832 C 296.915 264.859,296.737 264.913,297.754 265.283 C 299.296 265.844,302.653 265.089,304.422 263.784 C 305.940 262.664,306.400 262.563,306.400 263.351 C 306.400 263.654,306.683 264.137,307.028 264.423 C 307.558 264.863,307.546 264.715,306.954 263.472 C 306.124 261.731,306.300 261.733,303.855 263.441 M279.068 265.298 C 280.181 265.566,281.512 265.568,283.068 265.301 C 285.374 264.907,285.356 264.903,281.400 264.899 C 277.884 264.896,277.602 264.945,279.068 265.298 M342.600 265.200 C 343.573 265.618,346.957 265.618,348.600 265.200 C 349.397 264.997,348.455 264.888,345.800 264.875 C 343.232 264.863,342.086 264.979,342.600 265.200 M194.500 267.865 C 193.952 268.086,193.772 273.011,194.300 273.339 C 194.465 273.442,194.539 272.456,194.464 271.148 C 194.380 269.679,194.513 268.546,194.813 268.185 C 195.325 267.568,195.300 267.542,194.500 267.865 M152.464 273.067 C 152.429 273.764,152.296 274.664,152.170 275.067 C 151.953 275.759,151.965 275.760,152.394 275.091 C 152.645 274.702,152.777 273.802,152.689 273.091 L 152.528 271.800 152.464 273.067 M196.046 273.985 C 197.055 274.291,199.981 274.152,200.352 273.781 C 200.452 273.682,199.288 273.615,197.767 273.634 C 195.755 273.659,195.285 273.755,196.046 273.985 M151.457 279.527 C 151.272 280.477,151.228 281.362,151.360 281.494 C 151.839 281.972,152.047 281.247,151.922 279.542 L 151.793 277.800 151.457 279.527 " stroke="none" fill="#979797" fill-rule="evenodd"></path></g></svg>